<svg xmlns="http://www.w3.org/2000/svg" width="496" height="496" viewBox="0 0 496 496">
  <path id="check-circle-regular-1" d="M256,8C119.033,8,8,119.033,8,256S119.033,504,256,504,504,392.967,504,256,392.967,8,256,8Zm0,48A200,200,0,1,1,56,256,199.95,199.95,0,0,1,256,56M396.2,186.267l-22.536-22.718a12,12,0,0,0-16.97-.068L215.346,303.7,155.554,243.42a12,12,0,0,0-16.97-.069l-22.719,22.536a12,12,0,0,0-.068,16.971l90.781,91.516a12,12,0,0,0,16.97.068l172.589-171.2a12,12,0,0,0,.067-16.971Z" transform="translate(-8 -8)"/>
</svg>
